%TF.GenerationSoftware,KiCad,Pcbnew,(6.0.4)*%
%TF.CreationDate,2022-04-29T23:18:29+02:00*%
%TF.ProjectId,fr4plate,66723470-6c61-4746-952e-6b696361645f,rev?*%
%TF.SameCoordinates,Original*%
%TF.FileFunction,Copper,L1,Top*%
%TF.FilePolarity,Positive*%
%FSLAX46Y46*%
G04 Gerber Fmt 4.6, Leading zero omitted, Abs format (unit mm)*
G04 Created by KiCad (PCBNEW (6.0.4)) date 2022-04-29 23:18:29*
%MOMM*%
%LPD*%
G01*
G04 APERTURE LIST*
%TA.AperFunction,Conductor*%
%ADD10C,0.250000*%
%TD*%
G04 APERTURE END LIST*
D10*
%TO.N,*%
X297180000Y-114300000D02*
X302260000Y-109220000D01*
X297180000Y-116840000D02*
X302260000Y-121920000D01*
X299720000Y-116840000D02*
X297180000Y-116840000D01*
X299720000Y-114300000D02*
X299720000Y-116840000D01*
X325120000Y-121920000D02*
X325120000Y-109220000D01*
X327660000Y-109220000D02*
X322580000Y-109220000D01*
X320040000Y-114300000D02*
X320040000Y-121920000D01*
X314960000Y-114300000D02*
X314960000Y-109220000D01*
X320040000Y-114300000D02*
X320040000Y-109220000D01*
X314960000Y-121920000D02*
X314960000Y-114300000D01*
X314960000Y-114300000D02*
X320040000Y-114300000D01*
X312420000Y-121920000D02*
X312420000Y-116840000D01*
X307340000Y-121920000D02*
X312420000Y-121920000D01*
X307340000Y-109220000D02*
X307340000Y-121920000D01*
X312420000Y-116840000D02*
X309880000Y-116840000D01*
X312420000Y-109220000D02*
X307340000Y-109220000D01*
X304800000Y-121920000D02*
X304800000Y-109220000D01*
X297180000Y-121920000D02*
X302260000Y-121920000D01*
X297180000Y-114300000D02*
X299720000Y-114300000D01*
X297180000Y-114300000D02*
X297180000Y-109220000D01*
X297180000Y-121920000D02*
X297180000Y-114300000D01*
X297180000Y-109220000D02*
X302260000Y-109220000D01*
X294640000Y-119380000D02*
X294640000Y-121920000D01*
X294640000Y-114300000D02*
X292100000Y-116840000D01*
X292100000Y-116840000D02*
X294640000Y-119380000D01*
X294640000Y-111760000D02*
X294640000Y-114300000D01*
X292100000Y-109220000D02*
X294640000Y-111760000D01*
X289560000Y-109220000D02*
X292100000Y-109220000D01*
X289560000Y-121920000D02*
X289560000Y-109220000D01*
X284480000Y-109220000D02*
X281940000Y-109220000D01*
X287020000Y-119380000D02*
X287020000Y-111760000D01*
X284480000Y-121920000D02*
X287020000Y-119380000D01*
X287020000Y-111760000D02*
X284480000Y-109220000D01*
X281940000Y-121920000D02*
X284480000Y-121920000D01*
X281940000Y-109220000D02*
X281940000Y-121920000D01*
%TD*%
M02*
