%TF.GenerationSoftware,KiCad,Pcbnew,(6.0.4)*%
%TF.CreationDate,2022-04-30T00:29:43+02:00*%
%TF.ProjectId,fr4plate,66723470-6c61-4746-952e-6b696361645f,rev?*%
%TF.SameCoordinates,Original*%
%TF.FileFunction,Profile,NP*%
%FSLAX46Y46*%
G04 Gerber Fmt 4.6, Leading zero omitted, Abs format (unit mm)*
G04 Created by KiCad (PCBNEW (6.0.4)) date 2022-04-30 00:29:43*
%MOMM*%
%LPD*%
G01*
G04 APERTURE LIST*
%TA.AperFunction,Profile*%
%ADD10C,0.200000*%
%TD*%
G04 APERTURE END LIST*
D10*
X249236589Y-154371634D02*
X261236589Y-154371634D01*
X100309666Y-141371634D02*
G75*
G03*
X99309670Y-140371634I-999966J34D01*
G01*
X52680819Y-57409119D02*
G75*
G03*
X51680819Y-58409140I-19J-999981D01*
G01*
X94550048Y-130559148D02*
G75*
G03*
X95550048Y-129559134I-48J1000048D01*
G01*
X230187548Y-59409148D02*
G75*
G03*
X229187548Y-60409134I-48J-999952D01*
G01*
X280287548Y-73409148D02*
G75*
G03*
X281287548Y-72409134I-48J1000048D01*
G01*
X44446210Y-140371610D02*
G75*
G03*
X43446210Y-141371634I-10J-999990D01*
G01*
X43449999Y-60409164D02*
X43449999Y-72409164D01*
X180273129Y-154371629D02*
G75*
G03*
X181273129Y-153371634I-29J1000029D01*
G01*
X46862536Y-86546154D02*
X46918322Y-86546154D01*
X29637548Y-156396634D02*
X8383868Y-156396634D01*
X225425048Y-97509148D02*
G75*
G03*
X224425048Y-98509134I-48J-999952D01*
G01*
X-6730345Y-161303740D02*
X-11198112Y-156835973D01*
X320768746Y-54340046D02*
G75*
G03*
X321768746Y-53340049I-46J1000046D01*
G01*
X321767554Y-60409146D02*
G75*
G03*
X320767554Y-59409146I-999954J46D01*
G01*
X319387466Y-98509134D02*
G75*
G03*
X318387548Y-97509134I-1000066J-66D01*
G01*
X156462548Y-92459148D02*
G75*
G03*
X157462548Y-91459134I-48J1000048D01*
G01*
X62212464Y-41340036D02*
G75*
G03*
X61212481Y-40340036I-999964J36D01*
G01*
X76500066Y-117559140D02*
X76500066Y-129559140D01*
X209850048Y-117559134D02*
X209850048Y-129559134D01*
X272049970Y-129540030D02*
G75*
G03*
X273050048Y-130540030I999930J-70D01*
G01*
X281286566Y-141371634D02*
G75*
G03*
X280286589Y-140371634I-999966J34D01*
G01*
X25433868Y-36834134D02*
X104041176Y-36834134D01*
X189800048Y-130559148D02*
G75*
G03*
X190800048Y-129559134I-48J1000048D01*
G01*
X209112466Y-161096634D02*
G75*
G03*
X209612548Y-161596634I499934J-66D01*
G01*
X152987548Y-72409134D02*
X152987548Y-60409134D01*
X73025048Y-97509134D02*
X85025048Y-97509134D01*
X118359670Y-154371670D02*
G75*
G03*
X119359670Y-153371634I-70J1000070D01*
G01*
X248236566Y-153371634D02*
G75*
G03*
X249236589Y-154371634I1000034J34D01*
G01*
X44450066Y-116559140D02*
X44537066Y-116559140D01*
X214899970Y-129540030D02*
G75*
G03*
X215900048Y-130540030I999930J-70D01*
G01*
X13587548Y-54359128D02*
G75*
G03*
X14587548Y-53359134I2J999998D01*
G01*
X186323166Y-153371634D02*
G75*
G03*
X187323129Y-154371634I999934J-66D01*
G01*
X45537066Y-114559140D02*
X50537066Y-114559140D01*
X243474966Y-110509134D02*
G75*
G03*
X244475048Y-111509134I999934J-66D01*
G01*
X191087548Y-60409134D02*
X191087548Y-72409134D01*
X118362548Y-78459134D02*
X106362548Y-78459134D01*
X-17462452Y-40359134D02*
G75*
G03*
X-18462452Y-41359134I-1J-999999D01*
G01*
X30637466Y-155371634D02*
G75*
G03*
X29637548Y-154371634I-999966J34D01*
G01*
X108276710Y-33634134D02*
X110362496Y-33634134D01*
X243187548Y-72409134D02*
X243187548Y-60409134D01*
X119623162Y-36394789D02*
G75*
G03*
X120683817Y-36834134I1060638J1060589D01*
G01*
X61212542Y-111509142D02*
G75*
G03*
X62212542Y-110509152I158J999842D01*
G01*
X59862548Y-97509152D02*
X59862548Y-92459134D01*
X157749966Y-129559134D02*
G75*
G03*
X158750048Y-130559134I999934J-66D01*
G01*
X33637566Y-150321634D02*
G75*
G03*
X34637548Y-151321634I1000034J34D01*
G01*
X220662548Y-78459148D02*
G75*
G03*
X219662548Y-79459134I-48J-999952D01*
G01*
X109837481Y-41340036D02*
X109837481Y-53340036D01*
X166987548Y-60409134D02*
X166987548Y-72409134D01*
X163512548Y-78459148D02*
G75*
G03*
X162512548Y-79459134I-48J-999952D01*
G01*
X156462548Y-78459134D02*
X144462548Y-78459134D01*
X105362466Y-91459134D02*
G75*
G03*
X106362548Y-92459134I999934J-66D01*
G01*
X100600048Y-129559134D02*
X100600048Y-117559134D01*
X111566228Y-156396634D02*
X47446210Y-156396634D01*
X243475048Y-110509134D02*
X243475048Y-98509134D01*
X195562466Y-79459134D02*
G75*
G03*
X194562548Y-78459134I-1000066J-66D01*
G01*
X61212482Y-54340081D02*
G75*
G03*
X62212481Y-53340036I-82J1000081D01*
G01*
X199325048Y-111509134D02*
X187325048Y-111509134D01*
X274143746Y-41340049D02*
X274143746Y-53340049D01*
X33637548Y-53359134D02*
X33637548Y-41359134D01*
X205612548Y-161596634D02*
X203526762Y-161596634D01*
X263525048Y-97509148D02*
G75*
G03*
X262525048Y-98509134I-48J-999952D01*
G01*
X161223129Y-140371634D02*
X149223129Y-140371634D01*
X99312548Y-92459148D02*
G75*
G03*
X100312548Y-91459134I-48J1000048D01*
G01*
X181273129Y-153371634D02*
X181273129Y-141371634D01*
X120683817Y-36834134D02*
X270728676Y-36834134D01*
X-5462452Y-140371634D02*
X-17462452Y-140371634D01*
X44449999Y-59409099D02*
G75*
G03*
X43449999Y-60409164I101J-1000101D01*
G01*
X229187548Y-60409134D02*
X229187548Y-72409134D01*
X125409670Y-140371634D02*
X137409670Y-140371634D01*
X302598208Y-156835973D02*
X298130441Y-161303740D01*
X228899970Y-117540030D02*
G75*
G03*
X227900048Y-116540030I-1000070J-70D01*
G01*
X587548Y-60409134D02*
X587548Y-72409134D01*
X287337554Y-59409154D02*
G75*
G03*
X286337554Y-60409146I-154J-999846D01*
G01*
X173037548Y-59409134D02*
X185037548Y-59409134D01*
X81259666Y-141371634D02*
G75*
G03*
X80259670Y-140371634I-999966J34D01*
G01*
X1587548Y-40359134D02*
X13587548Y-40359134D01*
X266000048Y-116540030D02*
X254000048Y-116540030D01*
X104075048Y-111509148D02*
G75*
G03*
X105075048Y-110509134I-48J1000048D01*
G01*
X118359670Y-154371634D02*
X106359670Y-154371634D01*
X85025048Y-111509148D02*
G75*
G03*
X86025048Y-110509134I-48J1000048D01*
G01*
X45862548Y-104417159D02*
X45862548Y-109422131D01*
X113600048Y-130559148D02*
G75*
G03*
X114600048Y-129559134I-48J1000048D01*
G01*
X306387548Y-97509148D02*
G75*
G03*
X305387548Y-98509134I-48J-999952D01*
G01*
X20637548Y-54359134D02*
X32637548Y-54359134D01*
X232662548Y-92459134D02*
X220662548Y-92459134D01*
X55356310Y-79546154D02*
X53953927Y-79546154D01*
X51680819Y-58409140D02*
X51680819Y-59409164D01*
X292100048Y-116540048D02*
G75*
G03*
X291100048Y-117540030I-48J-999952D01*
G01*
X283016228Y-156396634D02*
X217933868Y-156396634D01*
X201706248Y-54359148D02*
G75*
G03*
X202706248Y-53359134I-48J1000048D01*
G01*
X187325048Y-97509148D02*
G75*
G03*
X186325048Y-98509134I-48J-999952D01*
G01*
X258762482Y-40340081D02*
G75*
G03*
X257762481Y-41340036I-82J-999919D01*
G01*
X223137548Y-73409148D02*
G75*
G03*
X224137548Y-72409134I-48J1000048D01*
G01*
X211698334Y-161596606D02*
G75*
G03*
X212405441Y-161303740I66J999906D01*
G01*
X286310662Y-36394789D02*
G75*
G03*
X287371317Y-36834134I1060638J1060589D01*
G01*
X321768866Y-79459134D02*
G75*
G03*
X320768798Y-78459134I-1000066J-66D01*
G01*
X46918322Y-86546154D02*
X46918322Y-87984143D01*
X306387482Y-40340081D02*
G75*
G03*
X305387481Y-41340036I-82J-999919D01*
G01*
X-18462452Y-153371634D02*
G75*
G03*
X-17462452Y-154371634I1000003J3D01*
G01*
X314681788Y-57409146D02*
X319681788Y-57409146D01*
X323150048Y-130540048D02*
G75*
G03*
X324150048Y-129540030I-48J1000048D01*
G01*
X238450361Y-41340081D02*
G75*
G03*
X237449981Y-42340061I-361J-1000019D01*
G01*
X327175048Y-39834134D02*
X327175048Y-153396634D01*
X194562548Y-92459148D02*
G75*
G03*
X195562548Y-91459134I-48J1000048D01*
G01*
X72024966Y-110509134D02*
G75*
G03*
X73025048Y-111509134I999934J-66D01*
G01*
X318387548Y-111509134D02*
X306387548Y-111509134D01*
X286336566Y-153371634D02*
G75*
G03*
X287336589Y-154371634I1000034J34D01*
G01*
X-4462452Y-98509134D02*
G75*
G03*
X-5462452Y-97509134I-999999J1D01*
G01*
X92075048Y-97509134D02*
X104075048Y-97509134D01*
X210137548Y-60409134D02*
X210137548Y-72409134D01*
X225425048Y-97509134D02*
X237425048Y-97509134D01*
X202819646Y-161303749D02*
G75*
G03*
X203526762Y-161596634I707154J707249D01*
G01*
X117268751Y-53340049D02*
G75*
G03*
X118268746Y-54340049I999849J-151D01*
G01*
X313681758Y-59409149D02*
X313681788Y-59401395D01*
X76500060Y-117559140D02*
G75*
G03*
X75500066Y-116559140I-999960J40D01*
G01*
X294837548Y-161096634D02*
X294837548Y-157146634D01*
X76556795Y-57409140D02*
X81556795Y-57409140D01*
X191087466Y-72409134D02*
G75*
G03*
X192087548Y-73409134I999934J-66D01*
G01*
X142175048Y-111509148D02*
G75*
G03*
X143175048Y-110509134I-48J1000048D01*
G01*
X247949970Y-117540030D02*
G75*
G03*
X246950048Y-116540030I-1000070J-70D01*
G01*
X206373129Y-140371629D02*
G75*
G03*
X205373129Y-141371634I-29J-999971D01*
G01*
X143199990Y-41343790D02*
G75*
G03*
X142199990Y-42343772I10J-1000010D01*
G01*
X258762548Y-78459148D02*
G75*
G03*
X257762548Y-79459134I-48J-999952D01*
G01*
X219373166Y-141371634D02*
G75*
G03*
X218373129Y-140371634I-1000066J-66D01*
G01*
X46862548Y-101984143D02*
X48212542Y-101984143D01*
X77794299Y-92459134D02*
X80262548Y-92459134D01*
X291837548Y-157146634D02*
X291837548Y-161096634D01*
X281286589Y-153371634D02*
X281286589Y-141371634D01*
X132650048Y-130559134D02*
X120650048Y-130559134D01*
X86025048Y-98509134D02*
X86025048Y-110509134D01*
X129175048Y-110509134D02*
X129175048Y-98509134D01*
X45537066Y-114559066D02*
G75*
G03*
X44537066Y-115559140I34J-1000034D01*
G01*
X131148208Y-156835973D02*
X126680441Y-161303740D01*
X110862566Y-34134134D02*
G75*
G03*
X110362496Y-33634134I-500066J-66D01*
G01*
X587546Y-153371634D02*
G75*
G03*
X1587548Y-154371634I1000004J4D01*
G01*
X252712466Y-79459134D02*
G75*
G03*
X251712548Y-78459134I-1000066J-66D01*
G01*
X57680819Y-57409140D02*
X52680819Y-57409140D01*
X208850048Y-130559134D02*
X196850048Y-130559134D01*
X219373129Y-153371634D02*
X219373129Y-141371634D01*
X46862548Y-79546148D02*
G75*
G03*
X45862548Y-80546154I-48J-999952D01*
G01*
X75556795Y-59409168D02*
X75556795Y-58409140D01*
X47446210Y-154371610D02*
G75*
G03*
X46446210Y-155371634I-10J-999990D01*
G01*
X149199990Y-42343772D02*
X149199990Y-55343772D01*
X33637466Y-41359134D02*
G75*
G03*
X32637548Y-40359134I-999966J34D01*
G01*
X93456251Y-53340049D02*
G75*
G03*
X94456247Y-54340049I999849J-151D01*
G01*
X223137548Y-59409134D02*
X211137548Y-59409134D01*
X72025048Y-110509134D02*
X72025048Y-98509134D01*
X286337554Y-72409146D02*
G75*
G03*
X287337554Y-73409146I1000046J46D01*
G01*
X106362548Y-78459148D02*
G75*
G03*
X105362548Y-79459134I-48J-999952D01*
G01*
X286336589Y-141371634D02*
X286336589Y-153371634D01*
X15612548Y-34134134D02*
X15612548Y-37659134D01*
X115887548Y-59409148D02*
G75*
G03*
X114887548Y-60409134I-48J-999952D01*
G01*
X113600048Y-130559134D02*
X101600048Y-130559134D01*
X61118808Y-59409207D02*
G75*
G03*
X60118807Y-60409140I-108J-999893D01*
G01*
X114599966Y-117559134D02*
G75*
G03*
X113600048Y-116559134I-1000066J-66D01*
G01*
X228900048Y-117540030D02*
X228900048Y-129540030D01*
X297423334Y-161596634D02*
X295337548Y-161596634D01*
X233662466Y-79459134D02*
G75*
G03*
X232662548Y-78459134I-1000066J-66D01*
G01*
X257475048Y-98509134D02*
X257475048Y-110509134D01*
X283842891Y-33927026D02*
G75*
G03*
X283135783Y-33634134I-707091J-707074D01*
G01*
X13587548Y-154371628D02*
G75*
G03*
X14587548Y-153371634I2J999998D01*
G01*
X110125048Y-98509134D02*
X110125048Y-110509134D01*
X273143746Y-54340046D02*
G75*
G03*
X274143746Y-53340049I-46J1000046D01*
G01*
X275525048Y-111509148D02*
G75*
G03*
X276525048Y-110509134I-48J1000048D01*
G01*
X82643749Y-73409164D02*
X61118807Y-73409140D01*
X200612466Y-91459134D02*
G75*
G03*
X201612548Y-92459134I999934J-66D01*
G01*
X32637548Y-130559148D02*
G75*
G03*
X33637548Y-129559134I-48J1000048D01*
G01*
X185037548Y-73409134D02*
X173037548Y-73409134D01*
X30637548Y-155371634D02*
X30637548Y-155396634D01*
X181562466Y-91459134D02*
G75*
G03*
X182562548Y-92459134I999934J-66D01*
G01*
X157750048Y-129559134D02*
X157750048Y-117559134D01*
X296956246Y-54340046D02*
G75*
G03*
X297956246Y-53340049I-46J1000046D01*
G01*
X109837464Y-41340036D02*
G75*
G03*
X108837481Y-40340036I-999964J36D01*
G01*
X262236589Y-153371634D02*
X262236589Y-141371634D01*
X146937548Y-73409148D02*
G75*
G03*
X147937548Y-72409134I-48J1000048D01*
G01*
X237425048Y-111509148D02*
G75*
G03*
X238425048Y-110509134I-48J1000048D01*
G01*
X-5462452Y-111509134D02*
G75*
G03*
X-4462452Y-110509134I-3J1000003D01*
G01*
X29637548Y-156396648D02*
G75*
G03*
X30637548Y-155396634I-48J1000048D01*
G01*
X48212542Y-103422101D02*
X46862536Y-103422101D01*
X283842890Y-33927027D02*
X286310657Y-36394794D01*
X267000048Y-129540030D02*
X267000048Y-117540030D01*
X-17462452Y-140371634D02*
G75*
G03*
X-18462452Y-141371634I-1J-999999D01*
G01*
X199323129Y-154371629D02*
G75*
G03*
X200323129Y-153371634I-29J1000029D01*
G01*
X42446210Y-151321634D02*
X34637548Y-151321634D01*
X51537066Y-115559140D02*
X51537066Y-116559140D01*
X82556795Y-59409164D02*
X82643749Y-59409164D01*
X202819655Y-161303740D02*
X198351888Y-156835973D01*
X262237548Y-72409134D02*
X262237548Y-60409134D01*
X314681788Y-57409188D02*
G75*
G03*
X313681788Y-58409146I-88J-999912D01*
G01*
X171750048Y-117559134D02*
X171750048Y-129559134D01*
X287371317Y-36834134D02*
X324175048Y-36834134D01*
X13587548Y-154371634D02*
X1587548Y-154371634D01*
X248236589Y-141371634D02*
X248236589Y-153371634D01*
X56456987Y-73409140D02*
X57685791Y-73409140D01*
X237449939Y-55340061D02*
G75*
G03*
X238449601Y-56340061I1000061J61D01*
G01*
X238450361Y-41340061D02*
X248212882Y-41343772D01*
X266000048Y-130540048D02*
G75*
G03*
X267000048Y-129540030I-48J1000048D01*
G01*
X238425048Y-98509134D02*
X238425048Y-110509134D01*
X248212122Y-56343702D02*
G75*
G03*
X249212502Y-55343772I478J999902D01*
G01*
X143175048Y-98509134D02*
X143175048Y-110509134D01*
X157462548Y-91459134D02*
X157462548Y-79459134D01*
X261237548Y-59409134D02*
X249237548Y-59409134D01*
X108837548Y-59409134D02*
X96837548Y-59409134D01*
X300336566Y-141371634D02*
G75*
G03*
X299336589Y-140371634I-999966J34D01*
G01*
X181562548Y-79459134D02*
X181562548Y-91459134D01*
X-5462452Y-54359134D02*
X-17462452Y-54359134D01*
X-5462452Y-130559134D02*
X-17462452Y-130559134D01*
X124409666Y-153371634D02*
G75*
G03*
X125409670Y-154371634I1000034J34D01*
G01*
X74294298Y-94459134D02*
X76794299Y-94459134D01*
X101600048Y-116559134D02*
X113600048Y-116559134D01*
X44537066Y-116559140D02*
X44537066Y-115559140D01*
X93456246Y-53340049D02*
X93456246Y-41340049D01*
X80262548Y-78459134D02*
X56356310Y-78459134D01*
X-18487452Y-156396634D02*
X-21487452Y-153396634D01*
X587548Y-117559134D02*
X587548Y-129559134D01*
X227900048Y-130540030D02*
X215900048Y-130540030D01*
X86309670Y-141371634D02*
X86309670Y-153371634D01*
X186324966Y-110509134D02*
G75*
G03*
X187325048Y-111509134I999934J-66D01*
G01*
X276812548Y-91459134D02*
X276812548Y-79459134D01*
X282575048Y-97509134D02*
X294575048Y-97509134D01*
X162223129Y-153371634D02*
X162223129Y-141371634D01*
X319387548Y-98509134D02*
X319387548Y-110509134D01*
X52997483Y-78459134D02*
X47918322Y-78459134D01*
X218375048Y-97509134D02*
X206375048Y-97509134D01*
X100309670Y-153371634D02*
X100309670Y-141371634D01*
X53953916Y-79458185D02*
G75*
G03*
X52997483Y-78459134I-1000016J-15D01*
G01*
X218373129Y-154371629D02*
G75*
G03*
X219373129Y-153371634I-29J1000029D01*
G01*
X133649966Y-117559134D02*
G75*
G03*
X132650048Y-116559134I-1000066J-66D01*
G01*
X163512548Y-78459134D02*
X175512548Y-78459134D01*
X44450066Y-116559066D02*
G75*
G03*
X43450066Y-117559140I34J-1000034D01*
G01*
X119650048Y-129559134D02*
X119650048Y-117559134D01*
X257762548Y-91459134D02*
X257762548Y-79459134D01*
X101600048Y-116559148D02*
G75*
G03*
X100600048Y-117559134I-48J-999952D01*
G01*
X294575048Y-111509134D02*
X282575048Y-111509134D01*
X205373129Y-141371634D02*
X205373129Y-153371634D01*
X305387481Y-53340036D02*
X305387481Y-41340036D01*
X209112548Y-161096634D02*
X209112548Y-157146634D01*
X217933868Y-156396613D02*
G75*
G03*
X216873208Y-156835973I-68J-1499787D01*
G01*
X-5462452Y-111509134D02*
X-17462452Y-111509134D01*
X249236589Y-140371689D02*
G75*
G03*
X248236589Y-141371634I-89J-999911D01*
G01*
X99309670Y-154371670D02*
G75*
G03*
X100309670Y-153371634I-70J1000070D01*
G01*
X291337548Y-161596634D02*
X289251762Y-161596634D01*
X204087548Y-73409148D02*
G75*
G03*
X205087548Y-72409134I-48J1000048D01*
G01*
X202706166Y-41359134D02*
G75*
G03*
X201706248Y-40359134I-1000066J-66D01*
G01*
X285050048Y-130540048D02*
G75*
G03*
X286050048Y-129540030I-48J1000048D01*
G01*
X281049996Y-33634134D02*
X283135783Y-33634134D01*
X124409670Y-153371634D02*
X124409670Y-141371634D01*
X233949970Y-129540030D02*
G75*
G03*
X234950048Y-130540030I999930J-70D01*
G01*
X189800048Y-130559134D02*
X177800048Y-130559134D01*
X219662548Y-91459134D02*
X219662548Y-79459134D01*
X142175048Y-111509134D02*
X130175048Y-111509134D01*
X-6730345Y-161303740D02*
G75*
G03*
X-6023238Y-161596634I707108J707107D01*
G01*
X120650048Y-116559134D02*
X132650048Y-116559134D01*
X270762548Y-92459148D02*
G75*
G03*
X271762548Y-91459134I-48J1000048D01*
G01*
X587546Y-110509134D02*
G75*
G03*
X1587548Y-111509134I1000004J4D01*
G01*
X81262466Y-79459134D02*
G75*
G03*
X80262548Y-78459134I-1000066J-66D01*
G01*
X96837548Y-73409134D02*
X108837548Y-73409134D01*
X239712548Y-78459148D02*
G75*
G03*
X238712548Y-79459134I-48J-999952D01*
G01*
X161225048Y-111509148D02*
G75*
G03*
X162225048Y-110509134I-48J1000048D01*
G01*
X114887466Y-72409134D02*
G75*
G03*
X115887548Y-73409134I999934J-66D01*
G01*
X310150048Y-129540030D02*
X310150048Y-117540030D01*
X209112548Y-157146634D02*
G75*
G03*
X206112548Y-157146634I-1500000J0D01*
G01*
X258762482Y-40340036D02*
X273143747Y-40340049D01*
X296805811Y-59409146D02*
X313681758Y-59409149D01*
X274964210Y-33634131D02*
G75*
G03*
X274257103Y-33927027I-10J-999969D01*
G01*
X320681788Y-58409146D02*
X320681788Y-59409146D01*
X56449999Y-73409164D02*
X56456987Y-73409140D01*
X321768798Y-79459134D02*
X321768798Y-91459134D01*
X273050048Y-116540030D02*
X285050048Y-116540030D01*
X129174966Y-110509134D02*
G75*
G03*
X130175048Y-111509134I999934J-66D01*
G01*
X177800048Y-116559148D02*
G75*
G03*
X176800048Y-117559134I-48J-999952D01*
G01*
X71829889Y-94458197D02*
X74294298Y-94459134D01*
X2148334Y-161596634D02*
X62548Y-161596634D01*
X294837548Y-157146634D02*
G75*
G03*
X291837548Y-157146634I-1500000J0D01*
G01*
X206375048Y-111509134D02*
X218375048Y-111509134D01*
X108837482Y-54340081D02*
G75*
G03*
X109837481Y-53340036I-82J1000081D01*
G01*
X262525048Y-98509134D02*
X262525048Y-110509134D01*
X75500066Y-130559066D02*
G75*
G03*
X76500066Y-129559140I-66J1000066D01*
G01*
X205612548Y-161596648D02*
G75*
G03*
X206112548Y-161096634I-48J500048D01*
G01*
X306387548Y-97509134D02*
X318387548Y-97509134D01*
X111125048Y-111509134D02*
X123125048Y-111509134D01*
X-17462452Y-97509134D02*
G75*
G03*
X-18462452Y-98509134I-1J-999999D01*
G01*
X75413042Y-115559140D02*
X75413042Y-116559140D01*
X175512548Y-92459148D02*
G75*
G03*
X176512548Y-91459134I-48J1000048D01*
G01*
X201706248Y-54359134D02*
X177799996Y-54359134D01*
X143174966Y-98509134D02*
G75*
G03*
X142175048Y-97509134I-1000066J-66D01*
G01*
X310149970Y-129540030D02*
G75*
G03*
X311150048Y-130540030I999930J-70D01*
G01*
X19637548Y-110509134D02*
X19637548Y-98509134D01*
X46862548Y-87984148D02*
G75*
G03*
X45862548Y-88984143I-48J-999952D01*
G01*
X290805811Y-57409146D02*
X295805811Y-57409146D01*
X168275048Y-97509148D02*
G75*
G03*
X167275048Y-98509134I-48J-999952D01*
G01*
X47918322Y-78459122D02*
G75*
G03*
X46918322Y-79459134I-22J-999978D01*
G01*
X252999970Y-129540030D02*
G75*
G03*
X254000048Y-130540030I999930J-70D01*
G01*
X105075048Y-98509134D02*
X105075048Y-110509134D01*
X73025048Y-97509148D02*
G75*
G03*
X72025048Y-98509134I-48J-999952D01*
G01*
X115887548Y-59409134D02*
X127887548Y-59409134D01*
X149223129Y-154371634D02*
X161223129Y-154371634D01*
X304100048Y-130540030D02*
X292100048Y-130540030D01*
X53953927Y-79546154D02*
X53953927Y-79458185D01*
X32637548Y-140371634D02*
X20637548Y-140371634D01*
X274964210Y-33634134D02*
X277049996Y-33634134D01*
X256475048Y-111509134D02*
X244475048Y-111509134D01*
X238712548Y-91459134D02*
X238712548Y-79459134D01*
X195850048Y-129559134D02*
X195850048Y-117559134D01*
X123149981Y-54340049D02*
X123149981Y-55340061D01*
X-17462452Y-40359134D02*
X-5462452Y-40359134D01*
X44449999Y-73409164D02*
X56449999Y-73409164D01*
X147937548Y-72409134D02*
X147937548Y-60409134D01*
X277549996Y-34134134D02*
X277549996Y-37659134D01*
X199325048Y-111509148D02*
G75*
G03*
X200325048Y-110509134I-48J1000048D01*
G01*
X168275048Y-97509134D02*
X180275048Y-97509134D01*
X8791228Y-36834144D02*
G75*
G03*
X9851888Y-36394794I-28J1500044D01*
G01*
X33637548Y-117559134D02*
X33637548Y-129559134D01*
X139700048Y-116559134D02*
X151700048Y-116559134D01*
X246950048Y-130540030D02*
X234950048Y-130540030D01*
X106359670Y-140371634D02*
X118359670Y-140371634D01*
X67259670Y-141371634D02*
X67259670Y-153371634D01*
X206375048Y-97509148D02*
G75*
G03*
X205375048Y-98509134I-48J-999952D01*
G01*
X320768746Y-54340049D02*
X306387481Y-54340036D01*
X123149939Y-55340061D02*
G75*
G03*
X124149981Y-56340061I1000061J61D01*
G01*
X119359666Y-141371634D02*
G75*
G03*
X118359670Y-140371634I-999966J34D01*
G01*
X-21487452Y-39834134D02*
X-18487452Y-36834134D01*
X320767554Y-73409154D02*
G75*
G03*
X321767554Y-72409146I-154J1000154D01*
G01*
X180275048Y-111509148D02*
G75*
G03*
X181275048Y-110509134I-48J1000048D01*
G01*
X20637548Y-116559128D02*
G75*
G03*
X19637548Y-117559134I2J-1000002D01*
G01*
X138700048Y-129559134D02*
X138700048Y-117559134D01*
X57685791Y-73409138D02*
G75*
G03*
X58680849Y-72409152I-4791J999838D01*
G01*
X242186589Y-154371689D02*
G75*
G03*
X243186589Y-153371634I-89J1000089D01*
G01*
X153987548Y-59409148D02*
G75*
G03*
X152987548Y-60409134I-48J-999952D01*
G01*
X-21487452Y-153396634D02*
X-21487452Y-39834134D01*
X200325048Y-98509134D02*
X200325048Y-110509134D01*
X261236589Y-140371634D02*
X249236589Y-140371634D01*
X-4462452Y-117559134D02*
X-4462452Y-129559134D01*
X303658868Y-156396613D02*
G75*
G03*
X302598208Y-156835973I-68J-1499787D01*
G01*
X61212482Y-54340036D02*
X46831247Y-54340049D01*
X177799996Y-40359196D02*
G75*
G03*
X176799996Y-41359134I-96J-999904D01*
G01*
X13587548Y-111509134D02*
X1587548Y-111509134D01*
X297423334Y-161596606D02*
G75*
G03*
X298130441Y-161303740I66J999906D01*
G01*
X15612548Y-37659134D02*
G75*
G03*
X18612548Y-37659134I1500000J0D01*
G01*
X176800066Y-53359134D02*
G75*
G03*
X177799996Y-54359134I999934J-66D01*
G01*
X275525048Y-97509134D02*
X263525048Y-97509134D01*
X14587546Y-41359134D02*
G75*
G03*
X13587548Y-40359134I-999996J4D01*
G01*
X323150048Y-154371648D02*
G75*
G03*
X324150048Y-153371634I-48J1000048D01*
G01*
X205087466Y-60409134D02*
G75*
G03*
X204087548Y-59409134I-1000066J-66D01*
G01*
X45862548Y-80546154D02*
X45862548Y-85551095D01*
X243187466Y-60409134D02*
G75*
G03*
X242187548Y-59409134I-1000066J-66D01*
G01*
X234950048Y-116540030D02*
X246950048Y-116540030D01*
X137412548Y-92459134D02*
X125412548Y-92459134D01*
X69643751Y-53340049D02*
G75*
G03*
X70643747Y-54340049I1000049J49D01*
G01*
X186323129Y-141371634D02*
X186323129Y-153371634D01*
X-18462452Y-129559134D02*
G75*
G03*
X-17462452Y-130559134I1000003J3D01*
G01*
X304100048Y-130540048D02*
G75*
G03*
X305100048Y-129540030I-48J1000048D01*
G01*
X187323129Y-140371629D02*
G75*
G03*
X186323129Y-141371634I-29J-999971D01*
G01*
X1587548Y-73409134D02*
X13587548Y-73409134D01*
X232662548Y-92459148D02*
G75*
G03*
X233662548Y-91459134I-48J1000048D01*
G01*
X168273129Y-154371634D02*
X180273129Y-154371634D01*
X202706248Y-41359134D02*
X202706248Y-53359134D01*
X86312466Y-91459134D02*
G75*
G03*
X87312548Y-92459134I999934J-66D01*
G01*
X20637548Y-154371634D02*
X29637548Y-154371634D01*
X33637466Y-141371634D02*
G75*
G03*
X32637548Y-140371634I-999966J34D01*
G01*
X311150048Y-116540030D02*
X323150048Y-116540030D01*
X321767554Y-60409146D02*
X321767554Y-72409146D01*
X270728676Y-36834119D02*
G75*
G03*
X271789336Y-36394794I-76J1500219D01*
G01*
X281287466Y-60409134D02*
G75*
G03*
X280287548Y-59409134I-1000066J-66D01*
G01*
X200324966Y-98509134D02*
G75*
G03*
X199325048Y-97509134I-1000066J-66D01*
G01*
X261237548Y-73409148D02*
G75*
G03*
X262237548Y-72409134I-48J1000048D01*
G01*
X249212502Y-42343772D02*
X249212502Y-55343772D01*
X69643746Y-41340049D02*
X69643746Y-53340049D01*
X273050048Y-116540048D02*
G75*
G03*
X272050048Y-117540030I-48J-999952D01*
G01*
X148223166Y-153371634D02*
G75*
G03*
X149223129Y-154371634I999934J-66D01*
G01*
X45831251Y-53340049D02*
G75*
G03*
X46831247Y-54340049I1000049J49D01*
G01*
X280287548Y-59409134D02*
X268287548Y-59409134D01*
X297956251Y-41340049D02*
G75*
G03*
X296956247Y-40340049I-1000151J-151D01*
G01*
X56446210Y-140371634D02*
X44446210Y-140371634D01*
X216873208Y-156835973D02*
X212405441Y-161303740D01*
X100599966Y-129559134D02*
G75*
G03*
X101600048Y-130559134I999934J-66D01*
G01*
X587546Y-129559134D02*
G75*
G03*
X1587548Y-130559134I1000004J4D01*
G01*
X305387466Y-110509134D02*
G75*
G03*
X306387548Y-111509134I999934J-66D01*
G01*
X117094655Y-161303740D02*
X112626888Y-156835973D01*
X133937466Y-72409134D02*
G75*
G03*
X134937548Y-73409134I999934J-66D01*
G01*
X70829874Y-92459134D02*
X70829874Y-93458197D01*
X167274966Y-110509134D02*
G75*
G03*
X168275048Y-111509134I999934J-66D01*
G01*
X15612466Y-34134134D02*
G75*
G03*
X15112548Y-33634134I-499966J34D01*
G01*
X83643749Y-60409164D02*
X83643749Y-72409164D01*
X-11198112Y-156835973D02*
G75*
G03*
X-12258772Y-156396634I-1060658J-1060657D01*
G01*
X205374966Y-110509134D02*
G75*
G03*
X206375048Y-111509134I999934J-66D01*
G01*
X587548Y-153371634D02*
X587548Y-141371634D01*
X-12258772Y-156396634D02*
X-18487452Y-156396634D01*
X105074966Y-98509134D02*
G75*
G03*
X104075048Y-97509134I-1000066J-66D01*
G01*
X292100048Y-116540030D02*
X304100048Y-116540030D01*
X152700048Y-117559134D02*
X152700048Y-129559134D01*
X111125048Y-97509148D02*
G75*
G03*
X110125048Y-98509134I-48J-999952D01*
G01*
X244475048Y-97509148D02*
G75*
G03*
X243475048Y-98509134I-48J-999952D01*
G01*
X58680760Y-58409140D02*
G75*
G03*
X57680819Y-57409140I-999960J40D01*
G01*
X167275048Y-110509134D02*
X167275048Y-98509134D01*
X172037466Y-72409134D02*
G75*
G03*
X173037548Y-73409134I999934J-66D01*
G01*
X324149966Y-141371634D02*
G75*
G03*
X323150048Y-140371634I-1000066J-66D01*
G01*
X105359666Y-153371634D02*
G75*
G03*
X106359670Y-154371634I1000034J34D01*
G01*
X114362496Y-33634134D02*
X116448283Y-33634134D01*
X205087548Y-72409134D02*
X205087548Y-60409134D01*
X291337548Y-161596648D02*
G75*
G03*
X291837548Y-161096634I-48J500048D01*
G01*
X200323166Y-141371634D02*
G75*
G03*
X199323129Y-140371634I-1000066J-66D01*
G01*
X261236589Y-154371689D02*
G75*
G03*
X262236589Y-153371634I-89J1000089D01*
G01*
X14587548Y-141371634D02*
X14587548Y-153371634D01*
X108837548Y-73409148D02*
G75*
G03*
X109837548Y-72409134I-48J1000048D01*
G01*
X104075048Y-111509134D02*
X92075048Y-111509134D01*
X14587548Y-72409134D02*
X14587548Y-60409134D01*
X46862548Y-110422131D02*
X48212542Y-110422131D01*
X295575048Y-98509134D02*
X295575048Y-110509134D01*
X206112548Y-157146634D02*
X206112548Y-161096634D01*
X213612548Y-92459148D02*
G75*
G03*
X214612548Y-91459134I-48J1000048D01*
G01*
X13026762Y-33634134D02*
X15112548Y-33634134D01*
X91074966Y-110509134D02*
G75*
G03*
X92075048Y-111509134I999934J-66D01*
G01*
X14587546Y-117559134D02*
G75*
G03*
X13587548Y-116559134I-999996J4D01*
G01*
X94550048Y-130559134D02*
X82550048Y-130559134D01*
X168273129Y-140371629D02*
G75*
G03*
X167273129Y-141371634I-29J-999971D01*
G01*
X176512466Y-79459134D02*
G75*
G03*
X175512548Y-78459134I-1000066J-66D01*
G01*
X58680819Y-59401389D02*
X58680819Y-58409140D01*
X86024981Y-53340036D02*
X86024981Y-41340036D01*
X51680819Y-59409164D02*
X44449999Y-59409164D01*
X177799996Y-40359134D02*
X187318613Y-40359142D01*
X118268746Y-40340046D02*
G75*
G03*
X117268746Y-41340049I-46J-999954D01*
G01*
X-4462452Y-41359134D02*
G75*
G03*
X-5462452Y-40359134I-999999J1D01*
G01*
X68413012Y-116559140D02*
X68413042Y-116551389D01*
X229187466Y-72409134D02*
G75*
G03*
X230187548Y-73409134I999934J-66D01*
G01*
X-18462452Y-129559134D02*
X-18462452Y-117559134D01*
X108837482Y-54340036D02*
X94456247Y-54340049D01*
X46831246Y-40340049D02*
X61212481Y-40340036D01*
X281574981Y-53340036D02*
X281574981Y-41340036D01*
X112626908Y-156835953D02*
G75*
G03*
X111566228Y-156396634I-1060708J-1060847D01*
G01*
X324175048Y-156396634D02*
X303658868Y-156396634D01*
X214612548Y-79459134D02*
X214612548Y-91459134D01*
X214900048Y-129540030D02*
X214900048Y-117540030D01*
X82643749Y-73409249D02*
G75*
G03*
X83643749Y-72409164I51J999949D01*
G01*
X142199928Y-55343772D02*
G75*
G03*
X143199990Y-56343772I1000072J72D01*
G01*
X247950048Y-117540030D02*
X247950048Y-129540030D01*
X263525048Y-111509134D02*
X275525048Y-111509134D01*
X48212542Y-110422131D02*
X48212542Y-110509152D01*
X14587548Y-41359134D02*
X14587548Y-53359134D01*
X1587548Y-140371634D02*
X13587548Y-140371634D01*
X33637466Y-98509134D02*
G75*
G03*
X32637548Y-97509134I-999966J34D01*
G01*
X100312548Y-91459134D02*
X100312548Y-79459134D01*
X46918322Y-79546154D02*
X46862548Y-79546154D01*
X144462548Y-92459134D02*
X156462548Y-92459134D01*
X182562548Y-92459134D02*
X194562548Y-92459134D01*
X282575048Y-97509148D02*
G75*
G03*
X281575048Y-98509134I-48J-999952D01*
G01*
X288544655Y-161303740D02*
X284076888Y-156835973D01*
X321768746Y-41340049D02*
X321768746Y-53340049D01*
X201612548Y-78459134D02*
X213612548Y-78459134D01*
X14587546Y-98509134D02*
G75*
G03*
X13587548Y-97509134I-999996J4D01*
G01*
X83643736Y-60409164D02*
G75*
G03*
X82643749Y-59409164I-1000036J-36D01*
G01*
X262524966Y-110509134D02*
G75*
G03*
X263525048Y-111509134I999934J-66D01*
G01*
X282574982Y-40340036D02*
X296956247Y-40340049D01*
X-3437452Y-155571634D02*
X-3437452Y-161096634D01*
X-437452Y-155571634D02*
G75*
G03*
X-3437452Y-155571634I-1500000J0D01*
G01*
X149225048Y-97509134D02*
X161225048Y-97509134D01*
X277549996Y-37659134D02*
G75*
G03*
X280549996Y-37659134I1500000J0D01*
G01*
X-18462452Y-53359134D02*
G75*
G03*
X-17462452Y-54359134I1000003J3D01*
G01*
X262237466Y-60409134D02*
G75*
G03*
X261237548Y-59409134I-1000066J-66D01*
G01*
X229186566Y-153371634D02*
G75*
G03*
X230186589Y-154371634I1000034J34D01*
G01*
X-4462452Y-153371634D02*
X-4462452Y-141371634D01*
X-18462452Y-53359134D02*
X-18462452Y-41359134D01*
X280549996Y-37659134D02*
X280549996Y-34134134D01*
X267287466Y-72409134D02*
G75*
G03*
X268287548Y-73409134I999934J-66D01*
G01*
X24373217Y-36394785D02*
G75*
G03*
X25433868Y-36834134I1060683J1060685D01*
G01*
X123387548Y-161096634D02*
X123387548Y-155571634D01*
X271789336Y-36394794D02*
X274257103Y-33927027D01*
X276525048Y-110509134D02*
X276525048Y-98509134D01*
X43450060Y-129559140D02*
G75*
G03*
X44450066Y-130559140I1000040J40D01*
G01*
X158750048Y-116559148D02*
G75*
G03*
X157750048Y-117559134I-48J-999952D01*
G01*
X14587546Y-60409134D02*
G75*
G03*
X13587548Y-59409134I-999996J4D01*
G01*
X161223129Y-154371629D02*
G75*
G03*
X162223129Y-153371634I-29J1000029D01*
G01*
X288544646Y-161303749D02*
G75*
G03*
X289251762Y-161596634I707154J707249D01*
G01*
X297956246Y-41340049D02*
X297956246Y-53340049D01*
X151700048Y-130559134D02*
X139700048Y-130559134D01*
X110862496Y-37659134D02*
G75*
G03*
X113862496Y-37659134I1500000J0D01*
G01*
X257474966Y-98509134D02*
G75*
G03*
X256475048Y-97509134I-1000066J-66D01*
G01*
X19112548Y-33634148D02*
G75*
G03*
X18612548Y-34134134I-48J-499952D01*
G01*
X96837548Y-59409148D02*
G75*
G03*
X95837548Y-60409134I-48J-999952D01*
G01*
X100312466Y-79459134D02*
G75*
G03*
X99312548Y-78459134I-1000066J-66D01*
G01*
X149199928Y-42343772D02*
G75*
G03*
X148199990Y-41343772I-999928J72D01*
G01*
X21905417Y-33927051D02*
G75*
G03*
X21198334Y-33634134I-707117J-707049D01*
G01*
X60118760Y-72409140D02*
G75*
G03*
X61118807Y-73409140I1000040J40D01*
G01*
X282574982Y-40340081D02*
G75*
G03*
X281574981Y-41340036I-82J-999919D01*
G01*
X305387548Y-110509134D02*
X305387548Y-98509134D01*
X158750048Y-116559134D02*
X170750048Y-116559134D01*
X80262548Y-92459148D02*
G75*
G03*
X81262548Y-91459134I-48J1000048D01*
G01*
X218373129Y-140371634D02*
X206373129Y-140371634D01*
X304006298Y-78459134D02*
X320768798Y-78459134D01*
X211137548Y-73409134D02*
X223137548Y-73409134D01*
X95837466Y-72409134D02*
G75*
G03*
X96837548Y-73409134I999934J-66D01*
G01*
X77794299Y-93459134D02*
X77794299Y-92459134D01*
X-4462452Y-117559134D02*
G75*
G03*
X-5462452Y-116559134I-999999J1D01*
G01*
X294575048Y-111509148D02*
G75*
G03*
X295575048Y-110509134I-48J1000048D01*
G01*
X258762548Y-78459134D02*
X270762548Y-78459134D01*
X33637466Y-117559134D02*
G75*
G03*
X32637548Y-116559134I-999966J34D01*
G01*
X276524966Y-98509134D02*
G75*
G03*
X275525048Y-97509134I-1000066J-66D01*
G01*
X-437454Y-161096634D02*
G75*
G03*
X62548Y-161596634I500004J4D01*
G01*
X257762464Y-53340036D02*
G75*
G03*
X258762481Y-54340036I1000036J36D01*
G01*
X117094646Y-161303749D02*
G75*
G03*
X117801762Y-161596634I707154J707249D01*
G01*
X187323129Y-154371634D02*
X199323129Y-154371634D01*
X137409670Y-154371634D02*
X125409670Y-154371634D01*
X324175048Y-36834134D02*
X327175048Y-39834134D01*
X118268746Y-54340049D02*
X123149981Y-54340049D01*
X227900048Y-130540048D02*
G75*
G03*
X228900048Y-129540030I-48J1000048D01*
G01*
X119362466Y-79459134D02*
G75*
G03*
X118362548Y-78459134I-1000066J-66D01*
G01*
X196850048Y-116559134D02*
X208850048Y-116559134D01*
X130175048Y-97509134D02*
X142175048Y-97509134D01*
X324150048Y-141371634D02*
X324150048Y-153371634D01*
X290812548Y-79459134D02*
X290812548Y-91459134D01*
X237449981Y-55340061D02*
X237449981Y-42340061D01*
X62212481Y-41340036D02*
X62212481Y-53340036D01*
X251712548Y-92459134D02*
X239712548Y-92459134D01*
X19112548Y-33634134D02*
X21198334Y-33634134D01*
X277550066Y-34134134D02*
G75*
G03*
X277049996Y-33634134I-500066J-66D01*
G01*
X125412548Y-78459134D02*
X137412548Y-78459134D01*
X324149970Y-117540030D02*
G75*
G03*
X323150048Y-116540030I-1000070J-70D01*
G01*
X587548Y-110509134D02*
X587548Y-98509134D01*
X-17462452Y-97509134D02*
X-5462452Y-97509134D01*
X268286589Y-154371634D02*
X280286589Y-154371634D01*
X114887548Y-72409134D02*
X114887548Y-60409134D01*
X87309670Y-154371634D02*
X99309670Y-154371634D01*
X195562548Y-91459134D02*
X195562548Y-79459134D01*
X310149966Y-153371634D02*
G75*
G03*
X311150048Y-154371634I999934J-66D01*
G01*
X162512466Y-91459134D02*
G75*
G03*
X163512548Y-92459134I999934J-66D01*
G01*
X119359670Y-141371634D02*
X119359670Y-153371634D01*
X51537060Y-115559140D02*
G75*
G03*
X50537066Y-114559140I-999960J40D01*
G01*
X49212542Y-111509152D02*
X61212542Y-111509152D01*
X-4462452Y-41359134D02*
X-4462452Y-53359134D01*
X18612548Y-37659134D02*
X18612548Y-34134134D01*
X192087548Y-59409148D02*
G75*
G03*
X191087548Y-60409134I-48J-999952D01*
G01*
X281575048Y-110509134D02*
X281575048Y-98509134D01*
X181273166Y-141371634D02*
G75*
G03*
X180273129Y-140371634I-1000066J-66D01*
G01*
X130268746Y-40340049D02*
X118268746Y-40340049D01*
X161225048Y-111509134D02*
X149225048Y-111509134D01*
X238424966Y-98509134D02*
G75*
G03*
X237425048Y-97509134I-1000066J-66D01*
G01*
X60118807Y-72409140D02*
X60118807Y-60409140D01*
X187318613Y-40359142D02*
X187324983Y-40359121D01*
X-437452Y-161096634D02*
X-437452Y-155571634D01*
X142199990Y-55343772D02*
X142199990Y-42343772D01*
X285050048Y-130540030D02*
X273050048Y-130540030D01*
X148224966Y-110509134D02*
G75*
G03*
X149225048Y-111509134I999934J-66D01*
G01*
X243186589Y-141371634D02*
X243186589Y-153371634D01*
X280286589Y-154371689D02*
G75*
G03*
X281286589Y-153371634I-89J1000089D01*
G01*
X133650048Y-117559134D02*
X133650048Y-129559134D01*
X249237548Y-73409134D02*
X261237548Y-73409134D01*
X305099970Y-117540030D02*
G75*
G03*
X304100048Y-116540030I-1000070J-70D01*
G01*
X267287548Y-60409134D02*
X267287548Y-72409134D01*
X128887466Y-60409134D02*
G75*
G03*
X127887548Y-59409134I-1000066J-66D01*
G01*
X70643747Y-54340049D02*
X85024982Y-54340036D01*
X105101836Y-36394794D02*
X107569603Y-33927027D01*
X86312548Y-79459134D02*
X86312548Y-91459134D01*
X190799966Y-117559134D02*
G75*
G03*
X189800048Y-116559134I-1000066J-66D01*
G01*
X1587548Y-59409134D02*
G75*
G03*
X587548Y-60409134I-1J-999999D01*
G01*
X289812548Y-92459134D02*
X277812548Y-92459134D01*
X109837548Y-72409134D02*
X109837548Y-60409134D01*
X175512548Y-92459134D02*
X163512548Y-92459134D01*
X197291228Y-156396634D02*
X132208868Y-156396634D01*
X57446166Y-141371634D02*
G75*
G03*
X56446210Y-140371634I-999966J34D01*
G01*
X233950048Y-129540030D02*
X233950048Y-117540030D01*
X587546Y-72409134D02*
G75*
G03*
X1587548Y-73409134I1000004J4D01*
G01*
X290805811Y-57409211D02*
G75*
G03*
X289805811Y-58409146I-111J-999889D01*
G01*
X32637548Y-40359134D02*
X20637548Y-40359134D01*
X87309670Y-140371670D02*
G75*
G03*
X86309670Y-141371634I-70J-999930D01*
G01*
X69413042Y-114559140D02*
X74413042Y-114559140D01*
X105362548Y-79459134D02*
X105362548Y-91459134D01*
X234950048Y-116540048D02*
G75*
G03*
X233950048Y-117540030I-48J-999952D01*
G01*
X162223166Y-141371634D02*
G75*
G03*
X161223129Y-140371634I-1000066J-66D01*
G01*
X87312548Y-78459148D02*
G75*
G03*
X86312548Y-79459134I-48J-999952D01*
G01*
X239712548Y-78459134D02*
X251712548Y-78459134D01*
X106362548Y-92459134D02*
X118362548Y-92459134D01*
X62212542Y-110509152D02*
X62212542Y-98509152D01*
X13587548Y-73409128D02*
G75*
G03*
X14587548Y-72409134I2J999998D01*
G01*
X125412548Y-78459148D02*
G75*
G03*
X124412548Y-79459134I-48J-999952D01*
G01*
X281574964Y-53340036D02*
G75*
G03*
X282574981Y-54340036I1000036J36D01*
G01*
X118362548Y-92459148D02*
G75*
G03*
X119362548Y-91459134I-48J1000048D01*
G01*
X218375048Y-111509148D02*
G75*
G03*
X219375048Y-110509134I-48J1000048D01*
G01*
X113862496Y-37659134D02*
X113862496Y-34134134D01*
X173037548Y-59409148D02*
G75*
G03*
X172037548Y-60409134I-48J-999952D01*
G01*
X45862457Y-100984143D02*
G75*
G03*
X46862548Y-101984143I1000043J43D01*
G01*
X48212548Y-110509152D02*
G75*
G03*
X49212542Y-111509152I999952J-48D01*
G01*
X20637548Y-116559134D02*
X32637548Y-116559134D01*
X296805811Y-58409146D02*
X296805811Y-59409146D01*
X320681788Y-59409146D02*
X320767554Y-59409146D01*
X95549966Y-117559134D02*
G75*
G03*
X94550048Y-116559134I-1000066J-66D01*
G01*
X2148334Y-161596635D02*
G75*
G03*
X2855441Y-161303740I-4J1000005D01*
G01*
X303006366Y-91459134D02*
G75*
G03*
X304006298Y-92459134I999934J-66D01*
G01*
X324150048Y-117540030D02*
X324150048Y-129540030D01*
X276812466Y-91459134D02*
G75*
G03*
X277812548Y-92459134I999934J-66D01*
G01*
X204087548Y-59409134D02*
X192087548Y-59409134D01*
X-4462452Y-141371634D02*
G75*
G03*
X-5462452Y-140371634I-999999J1D01*
G01*
X148199990Y-56343772D02*
X143199990Y-56343772D01*
X295574966Y-98509134D02*
G75*
G03*
X294575048Y-97509134I-1000066J-66D01*
G01*
X137412548Y-92459148D02*
G75*
G03*
X138412548Y-91459134I-48J1000048D01*
G01*
X45831246Y-53340049D02*
X45831246Y-41340049D01*
X13587548Y-130559128D02*
G75*
G03*
X14587548Y-129559134I2J999998D01*
G01*
X143462466Y-91459134D02*
G75*
G03*
X144462548Y-92459134I999934J-66D01*
G01*
X19637566Y-153371634D02*
G75*
G03*
X20637548Y-154371634I1000034J34D01*
G01*
X13026762Y-33634097D02*
G75*
G03*
X12319655Y-33927027I38J-1000003D01*
G01*
X243186566Y-141371634D02*
G75*
G03*
X242186589Y-140371634I-999966J34D01*
G01*
X45862558Y-85551095D02*
G75*
G03*
X46862536Y-86546154I999942J4895D01*
G01*
X167273166Y-153371634D02*
G75*
G03*
X168273129Y-154371634I999934J-66D01*
G01*
X32637548Y-111509148D02*
G75*
G03*
X33637548Y-110509134I-48J1000048D01*
G01*
X268287548Y-73409134D02*
X280287548Y-73409134D01*
X99309670Y-140371634D02*
X87309670Y-140371634D01*
X294837466Y-161096634D02*
G75*
G03*
X295337548Y-161596634I499934J-66D01*
G01*
X130268746Y-56340146D02*
G75*
G03*
X131268746Y-55340061I54J999946D01*
G01*
X108276710Y-33634131D02*
G75*
G03*
X107569603Y-33927027I-10J-999969D01*
G01*
X138412548Y-79459134D02*
X138412548Y-91459134D01*
X211137548Y-59409148D02*
G75*
G03*
X210137548Y-60409134I-48J-999952D01*
G01*
X270762548Y-92459134D02*
X258762548Y-92459134D01*
X162225048Y-98509134D02*
X162225048Y-110509134D01*
X254000048Y-130540030D02*
X266000048Y-130540030D01*
X176799996Y-53359134D02*
X176799996Y-41359134D01*
X46918322Y-79459134D02*
X46918322Y-79546154D01*
X148199990Y-56343790D02*
G75*
G03*
X149199990Y-55343772I10J999990D01*
G01*
X162224966Y-98509134D02*
G75*
G03*
X161225048Y-97509134I-1000066J-66D01*
G01*
X229186589Y-153371634D02*
X229186589Y-141371634D01*
X81550048Y-129559134D02*
X81550048Y-117559134D01*
X20637548Y-40359128D02*
G75*
G03*
X19637548Y-41359134I2J-1000002D01*
G01*
X62212548Y-98509152D02*
G75*
G03*
X61212542Y-97509152I-1000048J-48D01*
G01*
X123387548Y-155571634D02*
G75*
G03*
X120387548Y-155571634I-1500000J0D01*
G01*
X149225048Y-97509148D02*
G75*
G03*
X148225048Y-98509134I-48J-999952D01*
G01*
X120650048Y-116559148D02*
G75*
G03*
X119650048Y-117559134I-48J-999952D01*
G01*
X208850048Y-130559148D02*
G75*
G03*
X209850048Y-129559134I-48J1000048D01*
G01*
X201612548Y-78459148D02*
G75*
G03*
X200612548Y-79459134I-48J-999952D01*
G01*
X138409666Y-141371634D02*
G75*
G03*
X137409670Y-140371634I-999966J34D01*
G01*
X253000048Y-117540030D02*
X253000048Y-129540030D01*
X143462548Y-79459134D02*
X143462548Y-91459134D01*
X67259666Y-153371634D02*
G75*
G03*
X68259670Y-154371634I1000034J34D01*
G01*
X43450066Y-129559140D02*
X43450066Y-117559140D01*
X124149981Y-56340061D02*
X130268746Y-56340061D01*
X321768751Y-41340049D02*
G75*
G03*
X320768747Y-40340049I-1000151J-151D01*
G01*
X13587548Y-111509128D02*
G75*
G03*
X14587548Y-110509134I2J999998D01*
G01*
X224424966Y-110509134D02*
G75*
G03*
X225425048Y-111509134I999934J-66D01*
G01*
X117155391Y-33927026D02*
G75*
G03*
X116448283Y-33634134I-707091J-707074D01*
G01*
X256475048Y-111509148D02*
G75*
G03*
X257475048Y-110509134I-48J1000048D01*
G01*
X257762481Y-53340036D02*
X257762481Y-41340036D01*
X133937548Y-60409134D02*
X133937548Y-72409134D01*
X286337554Y-72409146D02*
X286337554Y-60409146D01*
X172037548Y-72409134D02*
X172037548Y-60409134D01*
X213612548Y-92459134D02*
X201612548Y-92459134D01*
X9851888Y-36394794D02*
X12319655Y-33927027D01*
X271762548Y-79459134D02*
X271762548Y-91459134D01*
X14587546Y-141371634D02*
G75*
G03*
X13587548Y-140371634I-999996J4D01*
G01*
X110862496Y-34134134D02*
X110862496Y-37659134D01*
X20637548Y-97509128D02*
G75*
G03*
X19637548Y-98509134I2J-1000002D01*
G01*
X125973334Y-161596634D02*
X123887548Y-161596634D01*
X46862536Y-103422136D02*
G75*
G03*
X45862548Y-104417159I-36J-999964D01*
G01*
X123125048Y-111509148D02*
G75*
G03*
X124125048Y-110509134I-48J1000048D01*
G01*
X296956246Y-54340049D02*
X282574981Y-54340036D01*
X86024964Y-41340036D02*
G75*
G03*
X85024981Y-40340036I-999964J36D01*
G01*
X48212542Y-101984143D02*
X48212542Y-103422101D01*
X95837548Y-60409134D02*
X95837548Y-72409134D01*
X151700048Y-130559148D02*
G75*
G03*
X152700048Y-129559134I-48J1000048D01*
G01*
X81259670Y-153371634D02*
X81259670Y-141371634D01*
X81262548Y-91459134D02*
X81262548Y-79459134D01*
X94456246Y-40340049D02*
X108837481Y-40340036D01*
X45862569Y-109422131D02*
G75*
G03*
X46862548Y-110422131I1000031J31D01*
G01*
X-4462452Y-98509134D02*
X-4462452Y-110509134D01*
X176799966Y-129559134D02*
G75*
G03*
X177800048Y-130559134I999934J-66D01*
G01*
X61212542Y-97509152D02*
X59862548Y-97509152D01*
X86309666Y-153371634D02*
G75*
G03*
X87309670Y-154371634I1000034J34D01*
G01*
X124412548Y-91459134D02*
X124412548Y-79459134D01*
X1587548Y-97509134D02*
G75*
G03*
X587548Y-98509134I-1J-999999D01*
G01*
X119887548Y-161596648D02*
G75*
G03*
X120387548Y-161096634I-48J500048D01*
G01*
X153987548Y-59409134D02*
X165987548Y-59409134D01*
X238712466Y-91459134D02*
G75*
G03*
X239712548Y-92459134I999934J-66D01*
G01*
X32637548Y-130559134D02*
X20637548Y-130559134D01*
X242186589Y-154371634D02*
X230186589Y-154371634D01*
X127887548Y-73409148D02*
G75*
G03*
X128887548Y-72409134I-48J1000048D01*
G01*
X99312548Y-78459134D02*
X87312548Y-78459134D01*
X180273129Y-140371634D02*
X168273129Y-140371634D01*
X170750048Y-130559134D02*
X158750048Y-130559134D01*
X182562548Y-78459148D02*
G75*
G03*
X181562548Y-79459134I-48J-999952D01*
G01*
X152987466Y-72409134D02*
G75*
G03*
X153987548Y-73409134I999934J-66D01*
G01*
X224425048Y-110509134D02*
X224425048Y-98509134D01*
X209849966Y-117559134D02*
G75*
G03*
X208850048Y-116559134I-1000066J-66D01*
G01*
X19637548Y-41359134D02*
X19637548Y-53359134D01*
X68413042Y-116551389D02*
X68413042Y-115559140D01*
X274143751Y-41340049D02*
G75*
G03*
X273143747Y-40340049I-1000151J-151D01*
G01*
X299336589Y-154371689D02*
G75*
G03*
X300336589Y-153371634I-89J1000089D01*
G01*
X46446166Y-155396634D02*
G75*
G03*
X47446210Y-156396634I1000034J34D01*
G01*
X80259670Y-140371634D02*
X68259670Y-140371634D01*
X131268746Y-55340061D02*
X131268746Y-41340049D01*
X-5462452Y-54359134D02*
G75*
G03*
X-4462452Y-53359134I-3J1000003D01*
G01*
X19637566Y-53359134D02*
G75*
G03*
X20637548Y-54359134I1000034J34D01*
G01*
X75500066Y-130559140D02*
X44450066Y-130559140D01*
X305387464Y-53340036D02*
G75*
G03*
X306387481Y-54340036I1000036J36D01*
G01*
X200323129Y-153371634D02*
X200323129Y-141371634D01*
X147937466Y-60409134D02*
G75*
G03*
X146937548Y-59409134I-1000066J-66D01*
G01*
X149223129Y-140371629D02*
G75*
G03*
X148223129Y-141371634I-29J-999971D01*
G01*
X19637566Y-110509134D02*
G75*
G03*
X20637548Y-111509134I1000034J34D01*
G01*
X237425048Y-111509134D02*
X225425048Y-111509134D01*
X105359670Y-153371634D02*
X105359670Y-141371634D01*
X137409670Y-154371670D02*
G75*
G03*
X138409670Y-153371634I-70J1000070D01*
G01*
X110124966Y-110509134D02*
G75*
G03*
X111125048Y-111509134I999934J-66D01*
G01*
X7323208Y-156835973D02*
X2855441Y-161303740D01*
X210137466Y-72409134D02*
G75*
G03*
X211137548Y-73409134I999934J-66D01*
G01*
X186037466Y-60409134D02*
G75*
G03*
X185037548Y-59409134I-1000066J-66D01*
G01*
X70643746Y-40340046D02*
G75*
G03*
X69643746Y-41340049I-46J-999954D01*
G01*
X20637548Y-140371628D02*
G75*
G03*
X19637548Y-141371634I2J-1000002D01*
G01*
X-17462452Y-116559134D02*
X-5462452Y-116559134D01*
X267286566Y-153371634D02*
G75*
G03*
X268286589Y-154371634I1000034J34D01*
G01*
X-17462452Y-154371634D02*
X-5462452Y-154371634D01*
X320767554Y-73409146D02*
X287337554Y-73409146D01*
X68259670Y-140371670D02*
G75*
G03*
X67259670Y-141371634I-70J-999930D01*
G01*
X8383868Y-156396601D02*
G75*
G03*
X7323208Y-156835973I32J-1499999D01*
G01*
X219374966Y-98509134D02*
G75*
G03*
X218375048Y-97509134I-1000066J-66D01*
G01*
X-3937452Y-161596634D02*
X-6023238Y-161596634D01*
X281287548Y-72409134D02*
X281287548Y-60409134D01*
X233662548Y-79459134D02*
X233662548Y-91459134D01*
X82550048Y-116559134D02*
X94550048Y-116559134D01*
X296805854Y-58409146D02*
G75*
G03*
X295805811Y-57409146I-1000054J-54D01*
G01*
X47446210Y-154371634D02*
X56446210Y-154371634D01*
X230187548Y-73409134D02*
X242187548Y-73409134D01*
X132650048Y-130559148D02*
G75*
G03*
X133650048Y-129559134I-48J1000048D01*
G01*
X587546Y-53359134D02*
G75*
G03*
X1587548Y-54359134I1000004J4D01*
G01*
X92075048Y-97509148D02*
G75*
G03*
X91075048Y-98509134I-48J-999952D01*
G01*
X268287548Y-59409148D02*
G75*
G03*
X267287548Y-60409134I-48J-999952D01*
G01*
X42446210Y-151321610D02*
G75*
G03*
X43446210Y-150321634I-10J1000010D01*
G01*
X-3937452Y-161596634D02*
G75*
G03*
X-3437452Y-161096634I-1J500001D01*
G01*
X114600048Y-117559134D02*
X114600048Y-129559134D01*
X281574966Y-110509134D02*
G75*
G03*
X282575048Y-111509134I999934J-66D01*
G01*
X85024981Y-40340036D02*
X70643746Y-40340049D01*
X181274966Y-98509134D02*
G75*
G03*
X180275048Y-97509134I-1000066J-66D01*
G01*
X32637548Y-111509134D02*
X20637548Y-111509134D01*
X289812548Y-92459148D02*
G75*
G03*
X290812548Y-91459134I-48J1000048D01*
G01*
X248212122Y-56343772D02*
X238449601Y-56340061D01*
X289805811Y-59409146D02*
X289805811Y-58409146D01*
X248237466Y-72409134D02*
G75*
G03*
X249237548Y-73409134I999934J-66D01*
G01*
X190800048Y-117559134D02*
X190800048Y-129559134D01*
X176512548Y-79459134D02*
X176512548Y-91459134D01*
X1587548Y-140371634D02*
G75*
G03*
X587548Y-141371634I-1J-999999D01*
G01*
X46831246Y-40340046D02*
G75*
G03*
X45831246Y-41340049I-46J-999954D01*
G01*
X252712548Y-79459134D02*
X252712548Y-91459134D01*
X205373166Y-153371634D02*
G75*
G03*
X206373129Y-154371634I999934J-66D01*
G01*
X19637548Y-129559134D02*
X19637548Y-117559134D01*
X117268746Y-41340049D02*
X117268746Y-53340049D01*
X119362548Y-91459134D02*
X119362548Y-79459134D01*
X138699966Y-129559134D02*
G75*
G03*
X139700048Y-130559134I999934J-66D01*
G01*
X125973334Y-161596606D02*
G75*
G03*
X126680441Y-161303740I66J999906D01*
G01*
X13587548Y-116559134D02*
X1587548Y-116559134D01*
X132208868Y-156396613D02*
G75*
G03*
X131148208Y-156835973I-68J-1499787D01*
G01*
X246950048Y-130540048D02*
G75*
G03*
X247950048Y-129540030I-48J1000048D01*
G01*
X313681788Y-59401395D02*
X313681788Y-58409146D01*
X68259670Y-154371634D02*
X80259670Y-154371634D01*
X187324983Y-40359121D02*
X201706248Y-40359134D01*
X171749966Y-117559134D02*
G75*
G03*
X170750048Y-116559134I-1000066J-66D01*
G01*
X143199990Y-41343772D02*
X148199990Y-41343772D01*
X271762466Y-79459134D02*
G75*
G03*
X270762548Y-78459134I-1000066J-66D01*
G01*
X198351908Y-156835953D02*
G75*
G03*
X197291228Y-156396634I-1060708J-1060847D01*
G01*
X187325048Y-97509134D02*
X199325048Y-97509134D01*
X125409670Y-140371670D02*
G75*
G03*
X124409670Y-141371634I-70J-999930D01*
G01*
X57446210Y-153371634D02*
X57446210Y-141371634D01*
X272050048Y-129540030D02*
X272050048Y-117540030D01*
X219375048Y-110509134D02*
X219375048Y-98509134D01*
X120387548Y-155571634D02*
X120387548Y-161096634D01*
X287336589Y-140371689D02*
G75*
G03*
X286336589Y-141371634I-89J-999911D01*
G01*
X81549966Y-129559134D02*
G75*
G03*
X82550048Y-130559134I999934J-66D01*
G01*
X87312548Y-92459134D02*
X99312548Y-92459134D01*
X56446210Y-154371610D02*
G75*
G03*
X57446210Y-153371634I-10J1000010D01*
G01*
X124125048Y-110509134D02*
X124125048Y-98509134D01*
X291099970Y-129540030D02*
G75*
G03*
X292100048Y-130540030I999930J-70D01*
G01*
X56356310Y-78459110D02*
G75*
G03*
X55356310Y-79459134I-10J-999990D01*
G01*
X106359670Y-140371670D02*
G75*
G03*
X105359670Y-141371634I-70J-999930D01*
G01*
X311150048Y-140371634D02*
X323150048Y-140371634D01*
X14587548Y-129559134D02*
X14587548Y-117559134D01*
X13587548Y-59409134D02*
X1587548Y-59409134D01*
X138412466Y-79459134D02*
G75*
G03*
X137412548Y-78459134I-1000066J-66D01*
G01*
X249237548Y-59409148D02*
G75*
G03*
X248237548Y-60409134I-48J-999952D01*
G01*
X251712548Y-92459148D02*
G75*
G03*
X252712548Y-91459134I-48J1000048D01*
G01*
X146937548Y-59409134D02*
X134937548Y-59409134D01*
X215900048Y-116540030D02*
X227900048Y-116540030D01*
X119887548Y-161596634D02*
X117801762Y-161596634D01*
X194562548Y-78459134D02*
X182562548Y-78459134D01*
X323150048Y-130540030D02*
X311150048Y-130540030D01*
X185037548Y-73409148D02*
G75*
G03*
X186037548Y-72409134I-48J1000048D01*
G01*
X320768798Y-92459198D02*
G75*
G03*
X321768798Y-91459134I-98J1000098D01*
G01*
X128887548Y-60409134D02*
X128887548Y-72409134D01*
X165987548Y-73409134D02*
X153987548Y-73409134D01*
X20637548Y-97509134D02*
X32637548Y-97509134D01*
X277812548Y-78459134D02*
X289812548Y-78459134D01*
X-18462452Y-141371634D02*
X-18462452Y-153371634D01*
X170750048Y-130559148D02*
G75*
G03*
X171750048Y-129559134I-48J1000048D01*
G01*
X166987466Y-60409134D02*
G75*
G03*
X165987548Y-59409134I-1000066J-66D01*
G01*
X224137466Y-60409134D02*
G75*
G03*
X223137548Y-59409134I-1000066J-66D01*
G01*
X139700048Y-116559148D02*
G75*
G03*
X138700048Y-117559134I-48J-999952D01*
G01*
X215900048Y-116540048D02*
G75*
G03*
X214900048Y-117540030I-48J-999952D01*
G01*
X177800048Y-116559134D02*
X189800048Y-116559134D01*
X46918322Y-87984143D02*
X46862548Y-87984143D01*
X119649966Y-129559134D02*
G75*
G03*
X120650048Y-130559134I999934J-66D01*
G01*
X45862548Y-88984143D02*
X45862548Y-100984143D01*
X206373129Y-154371634D02*
X218373129Y-154371634D01*
X-18462452Y-110509134D02*
G75*
G03*
X-17462452Y-111509134I1000003J3D01*
G01*
X19637548Y-141371634D02*
X19637548Y-153371634D01*
X114362496Y-33634196D02*
G75*
G03*
X113862496Y-34134134I-96J-499904D01*
G01*
X244475048Y-97509134D02*
X256475048Y-97509134D01*
X157462466Y-79459134D02*
G75*
G03*
X156462548Y-78459134I-1000066J-66D01*
G01*
X266999970Y-117540030D02*
G75*
G03*
X266000048Y-116540030I-1000070J-70D01*
G01*
X82550048Y-116559148D02*
G75*
G03*
X81550048Y-117559134I-48J-999952D01*
G01*
X80259670Y-154371670D02*
G75*
G03*
X81259670Y-153371634I-70J1000070D01*
G01*
X306387482Y-40340036D02*
X320768747Y-40340049D01*
X76556795Y-57409195D02*
G75*
G03*
X75556795Y-58409140I-95J-999905D01*
G01*
X86024966Y-98509134D02*
G75*
G03*
X85025048Y-97509134I-1000066J-66D01*
G01*
X268286589Y-140371689D02*
G75*
G03*
X267286589Y-141371634I-89J-999911D01*
G01*
X230186589Y-140371689D02*
G75*
G03*
X229186589Y-141371634I-89J-999911D01*
G01*
X13587548Y-54359134D02*
X1587548Y-54359134D01*
X186037548Y-60409134D02*
X186037548Y-72409134D01*
X58680849Y-72409152D02*
X58680849Y-59409152D01*
X58680849Y-59409152D02*
X58680819Y-59401389D01*
X94456246Y-40340046D02*
G75*
G03*
X93456246Y-41340049I-46J-999954D01*
G01*
X196850048Y-116559148D02*
G75*
G03*
X195850048Y-117559134I-48J-999952D01*
G01*
X242187548Y-59409134D02*
X230187548Y-59409134D01*
X-5462452Y-154371634D02*
G75*
G03*
X-4462452Y-153371634I-3J1000003D01*
G01*
X249212528Y-42343772D02*
G75*
G03*
X248212882Y-41343772I-1000028J-28D01*
G01*
X134937548Y-59409148D02*
G75*
G03*
X133937548Y-60409134I-48J-999952D01*
G01*
X85024982Y-54340081D02*
G75*
G03*
X86024981Y-53340036I-82J1000081D01*
G01*
X134937548Y-73409134D02*
X146937548Y-73409134D01*
X281049996Y-33634196D02*
G75*
G03*
X280549996Y-34134134I-96J-499904D01*
G01*
X320768798Y-92459134D02*
X304006298Y-92459134D01*
X257762466Y-91459134D02*
G75*
G03*
X258762548Y-92459134I999934J-66D01*
G01*
X33637548Y-98509134D02*
X33637548Y-110509134D01*
X200612548Y-91459134D02*
X200612548Y-79459134D01*
X14587548Y-98509134D02*
X14587548Y-110509134D01*
X148223129Y-141371634D02*
X148223129Y-153371634D01*
X205375048Y-98509134D02*
X205375048Y-110509134D01*
X1587548Y-40359134D02*
G75*
G03*
X587548Y-41359134I-1J-999999D01*
G01*
X-17462452Y-116559134D02*
G75*
G03*
X-18462452Y-117559134I-1J-999999D01*
G01*
X138409670Y-141371634D02*
X138409670Y-153371634D01*
X165987548Y-73409148D02*
G75*
G03*
X166987548Y-72409134I-48J1000048D01*
G01*
X311150048Y-140371648D02*
G75*
G03*
X310150048Y-141371634I-48J-999952D01*
G01*
X287336589Y-154371634D02*
X299336589Y-154371634D01*
X104041176Y-36834119D02*
G75*
G03*
X105101836Y-36394794I-76J1500219D01*
G01*
X290812466Y-79459134D02*
G75*
G03*
X289812548Y-78459134I-1000066J-66D01*
G01*
X286050048Y-117540030D02*
X286050048Y-129540030D01*
X76794299Y-94459199D02*
G75*
G03*
X77794299Y-93459134I-99J1000099D01*
G01*
X127887548Y-73409134D02*
X115887548Y-73409134D01*
X167273129Y-141371634D02*
X167273129Y-153371634D01*
X248237548Y-60409134D02*
X248237548Y-72409134D01*
X95550048Y-117559134D02*
X95550048Y-129559134D01*
X131268751Y-41340049D02*
G75*
G03*
X130268746Y-40340049I-1000151J-151D01*
G01*
X180275048Y-111509134D02*
X168275048Y-111509134D01*
X123125048Y-97509134D02*
X111125048Y-97509134D01*
X33637548Y-150321634D02*
X33637548Y-141371634D01*
X320681854Y-58409146D02*
G75*
G03*
X319681788Y-57409146I-1000054J-54D01*
G01*
X117155390Y-33927027D02*
X119623157Y-36394794D01*
X109837466Y-60409134D02*
G75*
G03*
X108837548Y-59409134I-1000066J-66D01*
G01*
X75412960Y-115559140D02*
G75*
G03*
X74413042Y-114559140I-1000060J-60D01*
G01*
X-18487452Y-36834134D02*
X8791228Y-36834134D01*
X70829903Y-93458197D02*
G75*
G03*
X71829889Y-94458197I999997J-3D01*
G01*
X304006298Y-78459198D02*
G75*
G03*
X303006298Y-79459134I-98J-999902D01*
G01*
X311150048Y-116540048D02*
G75*
G03*
X310150048Y-117540030I-48J-999952D01*
G01*
X46446210Y-155396634D02*
X46446210Y-155371634D01*
X19637566Y-129559134D02*
G75*
G03*
X20637548Y-130559134I1000034J34D01*
G01*
X1587548Y-130559134D02*
X13587548Y-130559134D01*
X176800048Y-129559134D02*
X176800048Y-117559134D01*
X318387548Y-111509148D02*
G75*
G03*
X319387548Y-110509134I-48J1000048D01*
G01*
X162512548Y-91459134D02*
X162512548Y-79459134D01*
X181275048Y-98509134D02*
X181275048Y-110509134D01*
X273143746Y-54340049D02*
X258762481Y-54340036D01*
X1587548Y-116559134D02*
G75*
G03*
X587548Y-117559134I-1J-999999D01*
G01*
X130175048Y-97509148D02*
G75*
G03*
X129175048Y-98509134I-48J-999952D01*
G01*
X300336589Y-153371634D02*
X300336589Y-141371634D01*
X219662466Y-91459134D02*
G75*
G03*
X220662548Y-92459134I999934J-66D01*
G01*
X277812548Y-78459148D02*
G75*
G03*
X276812548Y-79459134I-48J-999952D01*
G01*
X69413042Y-114559142D02*
G75*
G03*
X68413042Y-115559140I-42J-999958D01*
G01*
X214612466Y-79459134D02*
G75*
G03*
X213612548Y-78459134I-1000066J-66D01*
G01*
X61118808Y-59409140D02*
X75556795Y-59409168D01*
X32637548Y-54359148D02*
G75*
G03*
X33637548Y-53359134I-48J1000048D01*
G01*
X587548Y-53359134D02*
X587548Y-41359134D01*
X124124966Y-98509134D02*
G75*
G03*
X123125048Y-97509134I-1000066J-66D01*
G01*
X284076908Y-156835953D02*
G75*
G03*
X283016228Y-156396634I-1060708J-1060847D01*
G01*
X267286589Y-141371634D02*
X267286589Y-153371634D01*
X286049970Y-117540030D02*
G75*
G03*
X285050048Y-116540030I-1000070J-70D01*
G01*
X310150048Y-153371634D02*
X310150048Y-141371634D01*
X287337554Y-59409146D02*
X289805811Y-59409146D01*
X280286589Y-140371634D02*
X268286589Y-140371634D01*
X323150048Y-154371634D02*
X311150048Y-154371634D01*
X242187548Y-73409148D02*
G75*
G03*
X243187548Y-72409134I-48J1000048D01*
G01*
X-5462452Y-130559134D02*
G75*
G03*
X-4462452Y-129559134I-3J1000003D01*
G01*
X299336589Y-140371634D02*
X287336589Y-140371634D01*
X148225048Y-110509134D02*
X148225048Y-98509134D01*
X82556795Y-58409140D02*
X82556795Y-59409164D01*
X327175048Y-153396634D02*
X324175048Y-156396634D01*
X195849966Y-129559134D02*
G75*
G03*
X196850048Y-130559134I999934J-66D01*
G01*
X55356310Y-79459134D02*
X55356310Y-79546154D01*
X186325048Y-110509134D02*
X186325048Y-98509134D01*
X59862548Y-92459134D02*
X70829874Y-92459134D01*
X144462548Y-78459148D02*
G75*
G03*
X143462548Y-79459134I-48J-999952D01*
G01*
X91075048Y-110509134D02*
X91075048Y-98509134D01*
X199323129Y-140371634D02*
X187323129Y-140371634D01*
X220662548Y-78459134D02*
X232662548Y-78459134D01*
X262236566Y-141371634D02*
G75*
G03*
X261236589Y-140371634I-999966J34D01*
G01*
X85025048Y-111509134D02*
X73025048Y-111509134D01*
X305100048Y-117540030D02*
X305100048Y-129540030D01*
X224137548Y-72409134D02*
X224137548Y-60409134D01*
X124412466Y-91459134D02*
G75*
G03*
X125412548Y-92459134I999934J-66D01*
G01*
X303006298Y-91459134D02*
X303006298Y-79459134D01*
X82556860Y-58409140D02*
G75*
G03*
X81556795Y-57409140I-1000060J-60D01*
G01*
X254000048Y-116540048D02*
G75*
G03*
X253000048Y-117540030I-48J-999952D01*
G01*
X152699966Y-117559134D02*
G75*
G03*
X151700048Y-116559134I-1000066J-66D01*
G01*
X230186589Y-140371634D02*
X242186589Y-140371634D01*
X-18462452Y-110509134D02*
X-18462452Y-98509134D01*
X75413042Y-116559140D02*
X75500066Y-116559140D01*
X211698334Y-161596634D02*
X209612548Y-161596634D01*
X123387466Y-161096634D02*
G75*
G03*
X123887548Y-161596634I499934J-66D01*
G01*
X43450036Y-72409164D02*
G75*
G03*
X44449999Y-73409164I999964J-36D01*
G01*
X51537066Y-116559140D02*
X68413012Y-116559140D01*
X21905441Y-33927027D02*
X24373208Y-36394794D01*
X291100048Y-129540030D02*
X291100048Y-117540030D01*
X43446210Y-141371634D02*
X43446210Y-150321634D01*
X1587548Y-97509134D02*
X13587548Y-97509134D01*
X192087548Y-73409134D02*
X204087548Y-73409134D01*
M02*
